#N canvas 226 88 751 522 10;
#N canvas 291 275 592 248 video 0;
#X obj 95 35 inlet;
#X obj 93 117 pix_texture;
#X obj 93 169 rectangle 7.11 4.33;
#X obj 245 81 pix_info -------------;
#X floatatom 263 141 5 0 0 0 - - -;
#X floatatom 343 143 5 0 0 0 - - -;
#X obj 263 203 s videoWidth;
#X obj 343 203 s videoHeight;
#X connect 0 0 1 0;
#X connect 0 0 3 0;
#X connect 1 0 2 0;
#X connect 3 1 4 0;
#X connect 3 2 5 0;
#X connect 4 0 6 0;
#X connect 5 0 7 0;
#X restore -44 74 pd video;
#N canvas 400 206 752 439 init 0;
#X msg 25 4 read -resize \$1 tampon;
#X obj 25 26 soundfiler;
#X obj 25 48 table tampon 1;
#X obj 25 -41 loadbang;
#X obj 310 -29 cnv 15 100 80 empty empty DSP 20 12 0 14 -260097 -66577
0;
#X obj 326 -6 loadbang;
#X msg 326 16 \; pd dsp 1;
#X obj 175 21 soundfiler;
#X msg 175 -1 read -resize \$1 buff;
#X obj 175 43 table buff 1;
#X obj 104 181 bng 45 250 50 0 reset empty reset 47 25 0 10 -262144
-1 -1;
#X obj 104 88 key;
#X obj 130 88 loadbang;
#X obj 106 277 / 1000;
#X floatatom 106 300 5 0 0 0 - - -;
#X obj 106 323 s sensib;
#X obj 108 246 hsl 128 15 0 900 0 0 empty empty sensibilite -2 -8 0
15 -262144 -1 -1 0 1;
#X obj 211 178 tgl 45 0 onoff empty ON/OFF 50 22 0 10 -260097 -258113
-1 1 1;
#X msg 211 129 0;
#X obj 211 105 r reset;
#N canvas 413 81 794 549 chrono 0;
#X obj 6 23 inlet on-off;
#X obj 87 23 inlet reset;
#X obj 394 191 text3d;
#X obj 393 4 gemhead 30;
#X obj 311 29 loadbang;
#X obj 586 197 text3d;
#X obj 586 3 gemhead 30;
#X msg 594 114 text \$1;
#X msg 416 103 text \$1:;
#X obj 39 178 counter;
#X msg 40 133 down;
#X obj 73 364 counter;
#X floatatom 149 381 5 0 0 0 - - -;
#X obj 90 328 t b b;
#X obj 58 473 &&;
#X msg 58 297 1;
#X msg 73 420 1;
#X obj 58 323 tgl 15 0 empty empty empty 17 7 0 10 -262144 -1 -1 0
1;
#X obj 73 446 tgl 15 0 empty empty empty 17 7 0 10 -262144 -1 -1 0
1;
#X obj 73 394 sel 0;
#X obj 58 497 sel 1;
#X msg 58 520 0;
#X msg 88 296 0;
#X obj 6 69 metro 1000;
#X obj 65 226 s secondes;
#X obj 149 400 s minutes;
#X obj 594 91 r secondes;
#X obj 416 81 r minutes;
#X msg 103 419 0;
#X obj 58 568 s chrono_off;
#X obj 39 260 sel 0 1;
#X obj 58 543 pipe 1000;
#X msg 88 133 59;
#X obj 502 84 loadbang;
#X msg 179 276 1;
#X msg 495 147 font minecrafter_3.ttf;
#X msg 462 147 10;
#X obj 393 44 translateXYZ 2.6 -3.4 0;
#X obj 586 44 translateXYZ 3.5 -3.4 0;
#X connect 0 0 23 0;
#X connect 1 0 32 0;
#X connect 1 0 34 0;
#X connect 4 0 34 0;
#X connect 4 0 10 0;
#X connect 4 0 32 0;
#X connect 7 0 5 0;
#X connect 8 0 2 0;
#X connect 9 0 30 0;
#X connect 9 0 24 0;
#X connect 10 0 9 0;
#X connect 10 0 11 0;
#X connect 11 0 12 0;
#X connect 11 0 19 0;
#X connect 12 0 25 0;
#X connect 13 0 11 0;
#X connect 13 1 32 0;
#X connect 14 0 20 0;
#X connect 15 0 17 0;
#X connect 16 0 18 0;
#X connect 17 0 14 0;
#X connect 18 0 14 1;
#X connect 19 0 16 0;
#X connect 19 1 28 0;
#X connect 20 0 21 0;
#X connect 21 0 31 0;
#X connect 22 0 17 0;
#X connect 23 0 9 0;
#X connect 26 0 7 0;
#X connect 27 0 8 0;
#X connect 28 0 18 0;
#X connect 30 0 13 0;
#X connect 30 1 15 0;
#X connect 30 2 22 0;
#X connect 31 0 29 0;
#X connect 31 0 7 0;
#X connect 32 0 9 3;
#X connect 33 0 35 0;
#X connect 33 0 36 0;
#X connect 34 0 11 3;
#X connect 35 0 2 0;
#X connect 35 0 5 0;
#X connect 36 0 2 1;
#X connect 36 0 5 1;
#X connect 37 0 2 0;
#X connect 38 0 5 0;
#X restore 332 279 pd chrono;
#X obj 332 178 tgl 45 0 empty empty Chrono 50 22 0 10 -203904 -262144
-1 0 1;
#X obj 296 93 r onoff;
#X obj 427 219 r reset;
#X obj 346 93 r gagne;
#X msg 346 116 0;
#X floatatom 62 122 5 0 0 0 - - -;
#X msg 25 -18 open sons/fissure.wav;
#X msg 175 -23 open sons/bling.wav;
#X obj 104 110 sel 114 103;
#X obj 489 164 s wid;
#X obj 527 164 s hei;
#X msg 527 142 0.37;
#X obj 489 108 r reset;
#X msg 489 144 0.53;
#X text 507 59 taille des briques \; important pour le calcul du crop
;
#X connect 0 0 1 0;
#X connect 3 0 27 0;
#X connect 3 0 28 0;
#X connect 5 0 6 0;
#X connect 8 0 7 0;
#X connect 11 0 26 0;
#X connect 11 0 29 0;
#X connect 12 0 10 0;
#X connect 13 0 14 0;
#X connect 14 0 15 0;
#X connect 16 0 13 0;
#X connect 18 0 17 0;
#X connect 19 0 18 0;
#X connect 21 0 20 0;
#X connect 23 0 20 1;
#X connect 24 0 25 0;
#X connect 25 0 21 0;
#X connect 27 0 0 0;
#X connect 28 0 8 0;
#X connect 29 0 10 0;
#X connect 29 1 17 0;
#X connect 32 0 31 0;
#X connect 33 0 32 0;
#X connect 33 0 34 0;
#X connect 34 0 30 0;
#X coords 0 -1 1 1 350 120 1 100 150;
#X restore 308 -12 pd init;
#X text -44 288 TODO;
#N canvas 863 39 435 465 pause 0;
#X obj 76 181 tgl 15 0 empty empty empty 17 7 0 10 -262144 -1 -1 0
1;
#X obj 149 206 gemhead 100;
#X obj 149 437 text3d;
#X msg 173 358 font Minecrafter_3.ttf;
#X msg 181 384 text Pause;
#X obj 193 313 loadbang;
#X msg 200 410 20;
#X obj 122 30 r onoff;
#X obj 122 93 t f f;
#X obj 122 63 invert;
#X obj 76 153 metro 600;
#X obj 149 270 translateXYZ 0 2 0;
#X connect 0 0 1 0;
#X connect 1 0 11 0;
#X connect 3 0 2 0;
#X connect 4 0 2 0;
#X connect 5 0 3 0;
#X connect 5 0 4 0;
#X connect 5 0 6 0;
#X connect 6 0 2 1;
#X connect 7 0 9 0;
#X connect 8 0 10 0;
#X connect 8 1 1 0;
#X connect 9 0 8 0;
#X connect 10 0 0 0;
#X connect 11 0 2 0;
#X restore 179 106 pd pause;
#N canvas 493 252 450 232 titre 0;
#X obj 106 180 text3d;
#X obj 106 54 gemhead 60;
#X obj 270 70 loadbang;
#X msg 225 141 font blocked.ttf;
#X msg 7 140 text Break the wall;
#X msg 337 141 12;
#X obj 108 76 translateXYZ -3.1 -3.34 0;
#X connect 1 0 6 0;
#X connect 2 0 5 0;
#X connect 2 0 3 0;
#X connect 2 0 4 0;
#X connect 3 0 0 0;
#X connect 4 0 0 0;
#X connect 5 0 0 1;
#X connect 6 0 0 0;
#X restore 123 106 pd titre;
#N canvas 388 45 657 545 compteur 0;
#X floatatom 171 315 5 0 0 0 - - -;
#X obj 171 205 r boum;
#X obj 171 287 counter;
#X obj 123 61 gemhead 30;
#X obj 395 22 loadbang;
#X msg 140 242 down;
#X obj 171 339 prepend text;
#X obj 123 398 text3d;
#X obj 123 91 separator;
#X msg 190 226 -1;
#X obj 123 179 colorRGB 1 0 0;
#X obj 346 191 cnv 15 110 230 empty empty gagné! 20 12 0 14 -257985
-66577 0;
#X obj 357 215 select 0;
#X obj 357 404 text3d;
#X obj 357 278 gemhead 60;
#X msg 357 248 1;
#X msg 402 247 0;
#X msg 200 266 60;
#X obj 509 259 s gagne;
#X msg 186 361 font minecrafter_3.ttf;
#X msg 411 386 20;
#X msg 363 365 text gagne!;
#X msg 156 376 10;
#X text 11 382 compteur de \; briques restantes;
#X obj 200 245 r reset;
#X obj 123 156 translateXYZ 6 -3.4 0;
#X obj 567 105;
#X connect 0 0 6 0;
#X connect 0 0 12 0;
#X connect 1 0 2 0;
#X connect 2 0 0 0;
#X connect 3 0 8 0;
#X connect 4 0 5 0;
#X connect 4 0 9 0;
#X connect 4 0 22 0;
#X connect 4 0 21 0;
#X connect 4 0 19 0;
#X connect 4 0 20 0;
#X connect 5 0 2 0;
#X connect 6 0 7 0;
#X connect 9 0 2 2;
#X connect 10 0 7 0;
#X connect 12 0 15 0;
#X connect 12 0 18 0;
#X connect 12 1 16 0;
#X connect 14 0 13 0;
#X connect 15 0 14 0;
#X connect 16 0 14 0;
#X connect 17 0 2 3;
#X connect 19 0 7 0;
#X connect 19 0 13 0;
#X connect 20 0 13 1;
#X connect 21 0 13 0;
#X connect 22 0 7 1;
#X connect 24 0 17 0;
#X connect 25 0 10 0;
#X restore 235 106 pd compteur;
#X text -45 323 couleurs aleatoires ET jolies (en fonction de la position
!!!);
#X text -45 353 changer les sons...;
#X obj 14 75 s video;
#X obj -44 160 sp/team_matrix 1;
#X obj -45 -12 ../camera_in;
#X obj -44 206 ../video_out;
#X text -45 376 unprobleme avec la position en x des briques au load
;
#X obj 66 160 sp/team_matrix 2;
#X msg -45 -34 horizontal;
#X obj -45 -56 loadbang;
#X connect 10 0 0 0;
#X connect 10 0 8 0;
#X connect 14 0 10 0;
#X connect 15 0 14 0;
