#N canvas 565 108 772 456 10;
#X obj 286 59 inlet videosizeX;
#X obj 393 59 inlet videosizeY;
#X obj 8 58 inlet list;
#X floatatom 130 471 5 0 0 0 - - -;
#X floatatom 186 578 5 0 0 0 - - -;
#X floatatom 243 619 5 0 0 0 - - -;
#X obj 83 98 gemlist_info;
#X floatatom 152 160 5 0 0 0 - - -;
#X floatatom 186 161 5 0 0 0 - - -;
#X obj 134 198 unpack f f f;
#X obj 152 124 unpack f f f;
#X text 171 143 position;
#X floatatom 74 398 5 0 0 0 - - -;
#X obj 130 448 maxlib/scale 0 4 0 480;
#X obj 73 369 maxlib/scale 0 7.11 0 640;
#X text 140 180 size;
#X obj 18 692 pix_crop 0 0 0 0 0 0 0 0 0 0 0 0 0 0 0;
#X obj 186 484 expr (($f1 - $f2) + 7.11) /2;
#X obj 186 522 maxlib/scale 0 7.11 0 640;
#X obj 243 560 expr (($f1 - $f2) + 4)/2;
#X obj 18 740 outlet list;
#X obj 243 595 maxlib/scale 0 4 0 480;
#X obj 83 57 inlet rect;
#X text 373 170 ce sous-patch permet de rentrer un rectangle par dessus
une vidéo \, et de récupérer les coordonnées de crop de la video
\; ici \, la video est analysée sous chaque brique automatiquement
;
#X connect 0 0 14 4;
#X connect 0 0 18 4;
#X connect 1 0 13 4;
#X connect 1 0 21 4;
#X connect 2 0 16 0;
#X connect 3 0 16 2;
#X connect 4 0 16 3;
#X connect 5 0 16 4;
#X connect 6 3 9 0;
#X connect 6 4 10 0;
#X connect 7 0 17 0;
#X connect 8 0 19 0;
#X connect 9 0 14 0;
#X connect 9 0 17 1;
#X connect 9 1 13 0;
#X connect 9 1 19 1;
#X connect 10 0 7 0;
#X connect 10 1 8 0;
#X connect 12 0 16 1;
#X connect 13 0 3 0;
#X connect 14 0 12 0;
#X connect 16 0 20 0;
#X connect 17 0 18 0;
#X connect 18 0 4 0;
#X connect 19 0 21 0;
#X connect 21 0 5 0;
#X connect 22 0 6 0;
