#N canvas 333 64 648 453 10;
#X obj 246 31 r video;
#X obj 246 57 separator;
#X msg 310 27 1;
#X msg 69 398 0;
#N canvas 246 102 741 535 detection 0;
#X obj 51 88 pix_rgba;
#X obj 51 132 pix_mean_color;
#X obj 132 155 unpack 0 0 0 0;
#X obj 51 109 pix_movement 0.05;
#X obj 213 178 >= 0.1;
#X obj 213 230 sel 1;
#X obj 246 135 r sensib;
#X obj 51 64 inlet;
#X obj 213 346 outlet;
#X obj 213 262 oneshot;
#X msg 282 342 clear;
#X obj 289 309 r turnon;
#X obj 282 262 del 500;
#X connect 0 0 3 0;
#X connect 1 1 2 0;
#X connect 2 3 4 0;
#X connect 3 0 1 0;
#X connect 4 0 5 0;
#X connect 5 0 9 0;
#X connect 6 0 4 1;
#X connect 7 0 0 0;
#X connect 9 0 8 0;
#X connect 9 0 12 0;
#X connect 10 0 9 0;
#X connect 11 0 10 0;
#X connect 12 0 10 0;
#X restore 295 202 pd detection;
#N canvas 664 37 409 387 son 0;
#X obj 8 120 tabplay~ tampon;
#X obj 122 198 dac~;
#X obj 197 120 tabplay~ buff;
#X obj 16 97 inlet;
#X obj 201 97 inlet;
#X obj 86 65 bng 15 250 50 0 empty empty empty 17 7 0 10 -262144 -1
-1;
#X obj 206 60 bng 15 250 50 0 empty empty empty 17 7 0 10 -262144 -1
-1;
#X connect 0 0 1 0;
#X connect 0 0 1 1;
#X connect 2 0 1 0;
#X connect 2 0 1 1;
#X connect 3 0 0 0;
#X connect 4 0 2 0;
#X connect 5 0 0 0;
#X connect 6 0 2 0;
#X restore -3 427 pd son;
#X obj 30 361 t b b b;
#X obj 30 266 oneshot;
#X msg 30 229 clear;
#X obj 295 271 spigot;
#X obj 371 227 r onoff;
#X obj 30 206 r reset;
#X obj 310 2 r reset;
#N canvas 607 43 578 597 afficheBrique 0;
#X obj 182 48 inlet;
#X obj 149 104 separator;
#N canvas 644 134 585 381 position 1;
#X obj -30 126 \$1;
#X obj 320 185 \$2;
#X obj -68 332 translateXYZ 0 0 0;
#X obj -68 27 inlet;
#X obj -68 356 outlet;
#X obj 320 211 maxlib/scale 0 4 0.4 3.5;
#X obj 126 148 \$3;
#X obj 126 169 sel 1 2;
#X obj -32 303 +;
#X obj -12 261 t b f;
#X text 24 57 limite g;
#X obj 34 31 r wid;
#X floatatom 88 93 5 0 0 0 - - -;
#X obj 88 64 expr 6.71-($f1*2);
#X obj -53 185 maxlib/scale 0 5 0 5.65;
#X obj 299 44 r reset;
#X msg 152 195 0.2;
#X obj 126 229 +;
#X msg 105 195 -6.91;
#X obj 26 132 t b f;
#X obj 225 15 loadbang;
#X connect 0 0 14 0;
#X connect 1 0 5 0;
#X connect 2 0 4 0;
#X connect 3 0 2 0;
#X connect 5 0 2 2;
#X connect 6 0 7 0;
#X connect 7 0 18 0;
#X connect 7 1 16 0;
#X connect 8 0 2 1;
#X connect 9 0 8 0;
#X connect 9 1 8 1;
#X connect 11 0 13 0;
#X connect 11 0 17 1;
#X connect 12 0 19 0;
#X connect 13 0 12 0;
#X connect 14 0 8 0;
#X connect 15 0 0 0;
#X connect 15 0 1 0;
#X connect 15 0 6 0;
#X connect 16 0 17 0;
#X connect 17 0 9 0;
#X connect 18 0 17 0;
#X connect 19 0 14 0;
#X connect 19 1 14 4;
#X connect 20 0 0 0;
#X connect 20 0 6 0;
#X connect 20 0 1 0;
#X restore 149 148 pd position;
#X obj 149 82 spigot;
#X obj 149 263 pix_texture;
#N canvas 555 75 495 521 color 0;
#X obj 284 102 bng 15 250 50 0 empty empty empty 17 7 0 10 -262144
-1 -1;
#X obj 284 134 t b b b b b b;
#X obj 182 210 \$2;
#X obj 182 259 inv;
#X floatatom 199 304 5 0 0 0 - - -;
#X obj 300 224 \$1;
#X obj 298 269 / 4;
#X obj 149 390 colorRGB 1 0 1 1;
#X obj 350 229 \$3;
#X obj 351 273 expr ($f1 - 1)/1.5;
#X floatatom 249 292 5 0 0 0 - - -;
#X obj 182 235 * 1.2;
#X obj 158 94 inlet;
#X obj 149 446 outlet;
#X obj 284 75 r reset;
#X connect 0 0 1 0;
#X connect 1 1 2 0;
#X connect 1 3 5 0;
#X connect 1 4 8 0;
#X connect 2 0 11 0;
#X connect 3 0 4 0;
#X connect 3 0 7 1;
#X connect 5 0 6 0;
#X connect 6 0 7 3;
#X connect 6 0 10 0;
#X connect 7 0 13 0;
#X connect 8 0 9 0;
#X connect 9 0 7 2;
#X connect 11 0 3 0;
#X connect 12 0 7 0;
#X connect 14 0 0 0;
#X restore 149 192 pd color;
#N canvas 311 194 450 300 scale 0;
#X obj 65 70 inlet;
#X obj 65 153 outlet;
#X obj 65 111 scaleXYZ;
#X obj 144 48 r wid;
#X obj 194 48 r hei;
#X connect 0 0 2 0;
#X connect 2 0 1 0;
#X connect 3 0 2 1;
#X connect 4 0 2 2;
#X restore 149 224 pd scale;
#X obj 149 319 rectangle 1 1;
#X obj 149 375 outlet;
#X obj 149 22 gemhead 70;
#X connect 0 0 3 1;
#X connect 1 0 2 0;
#X connect 2 0 5 0;
#X connect 3 0 1 0;
#X connect 4 0 7 0;
#X connect 5 0 6 0;
#X connect 6 0 4 0;
#X connect 7 0 8 0;
#X connect 9 0 3 0;
#X restore 310 57 pd afficheBrique;
#X obj 295 152 cropping;
#X text 451 298 todo : \; calculer position brique \; l'afficher \;
calculer son crop \; traitements sur zone croppee \; retour de detection
;
#X obj 325 108 r videoWidth;
#X obj 405 108 r videoHeight;
#X text 378 199 bang si detec;
#X msg 378 266 0;
#X obj 49 427 s boum_\$3;
#X obj 85 281 r gagne;
#X msg 85 306 0;
#X obj 30 336 spigot;
#X msg 146 317 1;
#X obj 146 292 r reset;
#X obj 447 213 r gagne;
#X msg 447 238 0;
#X connect 0 0 1 0;
#X connect 1 0 14 0;
#X connect 2 0 13 0;
#X connect 4 0 9 0;
#X connect 6 0 5 1;
#X connect 6 1 20 0;
#X connect 6 2 3 0;
#X connect 7 0 23 0;
#X connect 8 0 7 0;
#X connect 9 0 7 0;
#X connect 9 0 19 0;
#X connect 10 0 9 1;
#X connect 11 0 8 0;
#X connect 12 0 2 0;
#X connect 13 0 14 1;
#X connect 14 0 4 0;
#X connect 16 0 14 2;
#X connect 17 0 14 3;
#X connect 19 0 13 0;
#X connect 21 0 22 0;
#X connect 22 0 23 1;
#X connect 23 0 6 0;
#X connect 24 0 23 1;
#X connect 25 0 24 0;
#X connect 26 0 27 0;
#X connect 27 0 9 1;
