#N canvas 626 3 733 579 10;
#X obj 15 -4 r video;
#X obj 15 22 separator;
#X msg 219 264 1;
#X obj 219 152 loadbang;
#X obj 15 101 oneshot;
#X msg 121 101 clear;
#X obj 128 64 r turnon;
#X obj 136 201 counter;
#X msg 165 177 0;
#X obj 65 101 pipe 500;
#X msg 155 255 0;
#N canvas 331 62 450 300 detection 0;
#X obj 123 104 pix_rgba;
#X obj 123 148 pix_mean_color;
#X obj 204 171 unpack 0 0 0 0;
#X obj 123 125 pix_movement 0.05;
#X obj 285 194 >= 0.1;
#X obj 285 216 sel 1;
#X obj 318 151 r sensib;
#X obj 123 79 inlet;
#X obj 285 243 outlet;
#X obj 222 89 r movement;
#X connect 0 0 3 0;
#X connect 1 1 2 0;
#X connect 2 3 4 0;
#X connect 3 0 1 0;
#X connect 4 0 5 0;
#X connect 5 0 8 0;
#X connect 6 0 4 1;
#X connect 7 0 0 0;
#X connect 9 0 3 1;
#X restore 15 74 pd detection;
#X obj 136 226 sel 1 2;
#N canvas 624 196 450 251 crop 0;
#X obj 117 23 inlet;
#X obj 118 208 outlet;
#X obj 118 165 pix_crop 1 1 0 0;
#X obj 192 88 \$1;
#X obj 229 88 \$2;
#X obj 164 54 loadbang;
#X msg 123 108 53.333;
#X msg 163 109 40;
#X obj 192 109 * 53.333;
#X obj 229 109 * 40;
#X obj 228 139 + 280;
#X connect 0 0 2 0;
#X connect 2 0 1 0;
#X connect 3 0 8 0;
#X connect 4 0 9 0;
#X connect 5 0 6 0;
#X connect 5 0 7 0;
#X connect 5 0 3 0;
#X connect 5 0 4 0;
#X connect 6 0 2 1;
#X connect 7 0 2 2;
#X connect 8 0 2 3;
#X connect 9 0 10 0;
#X connect 10 0 2 4;
#X restore 15 47 pd crop;
#N canvas 664 37 409 387 son 0;
#X obj 200 130 tabplay~ tampon;
#X obj 122 198 dac~;
#X obj 56 140 tabplay~ buff;
#X obj 208 107 inlet;
#X obj 60 117 inlet;
#X connect 0 0 1 0;
#X connect 0 0 1 1;
#X connect 2 0 1 0;
#X connect 2 0 1 1;
#X connect 3 0 0 0;
#X connect 4 0 2 0;
#X restore 70 351 pd son;
#X obj 114 351 s boum;
#X obj 165 152 r turnon;
#X obj -18 153 gate 2;
#X obj -18 130 r gate;
#X obj -18 225 t b b b;
#X obj -18 199 oneshot;
#X msg -5 178 clear;
#N canvas 0 0 450 300 rect_img 0;
#X obj 236 55 inlet;
#X obj 149 267 rectangle 0.42 0.3;
#X obj 148 56 r image;
#X obj 148 131 separator;
#N canvas 436 357 323 300 crop2 0;
#X obj 117 23 inlet;
#X obj 117 195 outlet;
#X obj 117 167 pix_crop 1 1 0 0;
#X obj 143 72 r width;
#X obj 192 72 r height;
#X obj 187 97 * \$1;
#X obj 241 120 * \$2;
#X connect 0 0 2 0;
#X connect 2 0 1 0;
#X connect 3 0 5 0;
#X connect 3 0 2 1;
#X connect 4 0 6 0;
#X connect 4 0 2 2;
#X connect 5 0 2 3;
#X connect 6 0 2 4;
#X restore 148 157 pd crop2;
#N canvas 856 300 450 300 position 0;
#X obj -74 71 cnv 15 280 170 empty empty POSITION 20 12 0 14 -204786
-66577 0;
#X obj 64 113 \$1;
#X obj 88 112 \$2;
#X obj 88 89 loadbang;
#X obj -68 212 translateXYZ 0 0 0;
#X obj -66 103 inlet;
#X obj -71 249 outlet;
#X floatatom 142 123 5 0 0 0 - - -;
#X obj -47 144 range 0 11 -6.6 3.05;
#X obj 89 146 range 0 4 0.85 3.5;
#X connect 1 0 8 0;
#X connect 2 0 9 0;
#X connect 3 0 1 0;
#X connect 3 0 2 0;
#X connect 4 0 6 0;
#X connect 5 0 4 0;
#X connect 7 0 9 3;
#X connect 8 0 4 1;
#X connect 9 0 4 2;
#X restore 148 193 pd position;
#X obj 149 214 pix_texture;
#X obj 148 96 spigot;
#X connect 0 0 7 1;
#X connect 2 0 7 0;
#X connect 3 0 4 0;
#X connect 4 0 5 0;
#X connect 5 0 6 0;
#X connect 6 0 1 0;
#X connect 7 0 3 0;
#X restore 205 303 pd rect_img;
#X connect 0 0 1 0;
#X connect 1 0 13 0;
#X connect 2 0 22 0;
#X connect 3 0 2 0;
#X connect 4 0 9 0;
#X connect 4 0 17 1;
#X connect 5 0 4 0;
#X connect 6 0 5 0;
#X connect 6 0 21 0;
#X connect 7 0 12 0;
#X connect 8 0 7 3;
#X connect 9 0 5 0;
#X connect 10 0 22 0;
#X connect 11 0 4 0;
#X connect 12 0 14 0;
#X connect 12 1 10 0;
#X connect 12 1 14 1;
#X connect 12 1 15 0;
#X connect 13 0 11 0;
#X connect 16 0 8 0;
#X connect 16 0 2 0;
#X connect 17 0 20 0;
#X connect 17 1 7 0;
#X connect 18 0 17 0;
#X connect 19 0 14 1;
#X connect 19 1 15 0;
#X connect 19 2 10 0;
#X connect 20 0 19 0;
#X connect 21 0 20 0;
