#N canvas 61 227 915 323 10;
#N canvas 431 130 613 438 gagne 0;
#X obj 74 32 r boum_\$1;
#X obj 77 101 f;
#X obj 119 101 + 1;
#X floatatom 77 155 5 0 0 0 - - -;
#X obj 147 30 r reset;
#X msg 147 56 0;
#X obj 77 178 >= 30;
#X obj 77 203 sel 1;
#X msg 77 224 1;
#X msg 120 324 font ../minecrafter_3.ttf;
#X obj 302 260 loadbang;
#X obj 80 395 text3d gagne !!!;
#X obj 230 119 loadbang;
#X msg 381 323 10;
#X obj 71 286 translateXYZ 0 2 0;
#X obj 269 147 bng 15 250 50 0 empty empty empty 17 7 0 10 -262144
-1 -1;
#X obj 227 169 expr if (\$1 == 1 \, -3.5 \, 3);
#X obj 77 247 gemhead 90;
#X obj 16 242 s gagne;
#X connect 0 0 1 0;
#X connect 1 0 2 0;
#X connect 1 0 3 0;
#X connect 2 0 1 1;
#X connect 3 0 6 0;
#X connect 4 0 5 0;
#X connect 5 0 1 0;
#X connect 5 0 17 0;
#X connect 6 0 7 0;
#X connect 7 0 8 0;
#X connect 7 0 18 0;
#X connect 8 0 17 0;
#X connect 9 0 11 0;
#X connect 10 0 9 0;
#X connect 10 0 13 0;
#X connect 12 0 16 0;
#X connect 13 0 11 1;
#X connect 14 0 11 0;
#X connect 15 0 16 0;
#X connect 16 0 14 1;
#X connect 17 0 14 0;
#X restore 448 76 pd gagne;
#X obj 245 3 quad 5 4 \$1;
#X obj 245 72 quad 5 1 \$1;
#X obj -240 3 quad 0 4 \$1;
#X obj -155 3 quad 1 4 \$1;
#X obj -240 26 quad 0 3 \$1;
#X obj -240 49 quad 0 2 \$1;
#X obj -240 72 quad 0 1 \$1;
#X obj -240 95 quad 0 0 \$1;
#X obj -155 72 quad 1 1 \$1;
#X obj -155 49 quad 1 2 \$1;
#X obj -156 26 quad 1 3 \$1;
#X obj -65 95 quad 2 0 \$1;
#X obj -65 72 quad 2 1 \$1;
#X obj -65 49 quad 2 2 \$1;
#X obj -64 26 quad 2 3 \$1;
#X obj -65 3 quad 2 4 \$1;
#X obj 47 3 quad 3 4 \$1;
#X obj 47 26 quad 3 3 \$1;
#X obj 47 49 quad 3 2 \$1;
#X obj 47 72 quad 3 1 \$1;
#X obj 47 95 quad 3 0 \$1;
#X obj 162 3 quad 4 4 \$1;
#X obj 162 26 quad 4 3 \$1;
#X obj 162 49 quad 4 2 \$1;
#X obj 162 72 quad 4 1 \$1;
#X obj 162 95 quad 4 0 \$1;
#X obj -155 95 quad 1 0 \$1;
#X obj 245 26 quad 5 3 \$1;
#X obj 245 49 quad 5 2 \$1;
#X obj 245 95 quad 5 0 \$1;
